# xmcd CD database file
# Copyright (C) 1993-1996 Ti Kan
#
# Track frame offsets:
# 150
# 12385
# 25145
# 40363
# 55308
# 65570
# 77495
# 92528
# 106420
# 119188
#
# Disc length: 1795 seconds
#
# Revision: 0
# Processed by: cddbd v1.4b41PL1 Copyright (c) Steve Scherf et al.
# Submitted via: inCDius 1.1b5
#
DISCID=8207010a
DTITLE=George Jones  - Super Hits - Volume 2
DYEAR=1900
DGENRE=
TTITLE0=The Door 
TTITLE1=Still Doin' Time
TTITLE2=Shine On (Shine  All Your Sweet Love On Me)
TTITLE3=I Always Get Lucky With You
TTITLE4=I'm A One Woman Man
TTITLE5=I Turn To You
TTITLE6=Wine Colored Roses
TTITLE7=Loving You Could Never Be Better
TTITLE8=She Thinks I Still Care
TTITLE9=Radio Lover
EXTD=
EXTT0=
EXTT1=
EXTT2=
EXTT3=
EXTT4=
EXTT5=
EXTT6=
EXTT7=
EXTT8=
EXTT9=
PLAYORDER=
